<svg id="Layer_1" data-name="Layer 1" xmlns="http://www.w3.org/2000/svg" viewBox="0 0 80 80"><defs><style>.cls-1{fill:#fcefc0;}.cls-2{fill:#fff;}.cls-3{fill:#ed9b20;}.cls-3,.cls-4{stroke:#000;stroke-miterlimit:10;}.cls-4{fill:#fad882;}</style></defs><title>placeholder</title><rect class="cls-1" x="0.8" y="0.8" width="78.4" height="78.4"/><path class="cls-2" d="M78.4,1.6V78.4H1.6V1.6H78.4M80,0H0V80H80Z" transform="translate(0)"/><path class="cls-3" d="M40,35.44A12.88,12.88,0,1,0,27.13,22.56,12.88,12.88,0,0,0,40,35.44Zm11.44,2.85H46.52a15.55,15.55,0,0,1-13,0H28.56A11.44,11.44,0,0,0,17.12,49.73h0v1.43a4.29,4.29,0,0,0,4.29,4.29H58.59a4.29,4.29,0,0,0,4.29-4.29V49.73A11.44,11.44,0,0,0,51.44,38.29Z" transform="translate(0)"/><path class="cls-4" d="M48.78,52.75H47.9a.88.88,0,0,0-.88.87h0v2.63a7,7,0,0,1-7.05,7c-.23,0-.45,0-.67,0A7.24,7.24,0,0,1,33,56V53.63a.87.87,0,0,0-.88-.88h-.88a.88.88,0,0,0-.88.88v2.2a10,10,0,0,0,8.34,10v1.88H35.61a.88.88,0,0,0-.88.88h0v.88a.87.87,0,0,0,.88.87h8.78a.88.88,0,0,0,.88-.87h0v-.88a.87.87,0,0,0-.88-.88H41.32V65.82a9.67,9.67,0,0,0,8.34-9.56V53.63a.88.88,0,0,0-.88-.88ZM40,61.53a5.27,5.27,0,0,0,5.27-5.27H40.59c-.32,0-.59-.2-.59-.44v-.88c0-.24.26-.44.59-.44h4.68V52.74H40.59c-.32,0-.59-.19-.59-.44v-.87c0-.25.26-.44.59-.44h4.68V49.23H40.59c-.32,0-.59-.2-.59-.44v-.88c0-.24.26-.44.59-.44h4.68a5.27,5.27,0,0,0-10.54,0h0v8.78A5.28,5.28,0,0,0,40,61.53Z" transform="translate(0)"/></svg>