<svg id="Layer_1" data-name="Layer 1" xmlns="http://www.w3.org/2000/svg" viewBox="0 0 500 500"><defs><style>.cls-1{fill:#fcefc0;}.cls-2{fill:#fff;}.cls-3{fill:#ed9b20;}.cls-3,.cls-4{stroke:#000;stroke-miterlimit:10;}.cls-4{fill:#fad882;}</style></defs><title>placeholder</title><rect class="cls-1" x="5" y="5" width="490" height="490"/><path class="cls-2" d="M490,10V490H10V10H490M500,0H0V500H500Z"/><path class="cls-3" d="M416,266.65H410.3V74.55a12.19,12.19,0,0,0-12-12.39H101.69a12.19,12.19,0,0,0-12,12.39v192.1H84a12.4,12.4,0,0,0,0,24.79H202.35l-47,120.35a12.55,12.55,0,0,0,6.61,16.14,11.86,11.86,0,0,0,15.61-6.85l28.24-72.21h88.48l28.24,72.21a12,12,0,0,0,11.12,7.76,11.77,11.77,0,0,0,4.49-.91,12.55,12.55,0,0,0,6.61-16.14L297.65,291.44H416a12.4,12.4,0,0,0,0-24.79Zm-302.34,0V86.94H386.33V266.65Zm170.88,57.44H215.45l12.76-32.65h43.58Z"/><path class="cls-4" d="M304.87,329.67h-5.49a5.48,5.48,0,0,0-5.48,5.48h0v16.46a44,44,0,0,1-44.11,43.89,41.64,41.64,0,0,1-4.18-.21c-22.8-2.22-39.51-22.73-39.51-45.64v-14.5a5.48,5.48,0,0,0-5.47-5.49h-5.5a5.49,5.49,0,0,0-5.49,5.49v13.77c0,30.74,21.94,58.14,52.13,62.31V423H222.56a5.48,5.48,0,0,0-5.48,5.48h0V434a5.48,5.48,0,0,0,5.47,5.49h54.89a5.48,5.48,0,0,0,5.48-5.48h0v-5.48a5.48,5.48,0,0,0-5.47-5.49H258.23V411.37a60.43,60.43,0,0,0,52.13-59.75V335.16a5.49,5.49,0,0,0-5.49-5.49ZM250,384.54a32.92,32.92,0,0,0,32.92-32.92V296.7a32.92,32.92,0,1,0-65.84,0h0v54.87a32.92,32.92,0,0,0,32.87,33Z"/></svg>