<svg id="Layer_1" data-name="Layer 1" xmlns="http://www.w3.org/2000/svg" viewBox="0 0 500 500"><defs><style>.cls-1{fill:#fcefc0;}.cls-2{fill:#fff;}.cls-3{fill:#ed9b20;}.cls-3,.cls-4{stroke:#000;stroke-miterlimit:10;}.cls-4{fill:#fad882;}</style></defs><title>placeholder_500</title><rect class="cls-1" x="5" y="5" width="490" height="490"/><path class="cls-2" d="M490,10V490H10V10H490M500,0H0V500H500V0Z"/><path class="cls-3" d="M250,221.47A80.44,80.44,0,1,0,169.56,141,80.46,80.46,0,0,0,250,221.47Zm71.5,17.87H290.72a97.21,97.21,0,0,1-81.44,0H178.5a71.5,71.5,0,0,0-71.5,71.5v8.94a26.82,26.82,0,0,0,26.81,26.81H366.19A26.82,26.82,0,0,0,393,319.78v-8.94A71.5,71.5,0,0,0,321.5,239.34Z"/><path class="cls-4" d="M304.87,329.67h-5.49a5.48,5.48,0,0,0-5.48,5.49v16.46a44,44,0,0,1-48.29,43.68c-22.8-2.22-39.51-22.73-39.51-45.64v-14.5a5.48,5.48,0,0,0-5.48-5.49h-5.49a5.49,5.49,0,0,0-5.49,5.49v13.77c0,30.74,21.94,58.14,52.13,62.31V423H222.56a5.48,5.48,0,0,0-5.48,5.49v5.48a5.48,5.48,0,0,0,5.48,5.49h54.88a5.48,5.48,0,0,0,5.48-5.49v-5.48a5.48,5.48,0,0,0-5.48-5.49H258.23V411.37a60.43,60.43,0,0,0,52.13-59.75V335.16A5.49,5.49,0,0,0,304.87,329.67ZM250,384.54a32.92,32.92,0,0,0,32.92-32.92H253.66c-2,0-3.66-1.23-3.66-2.75v-5.48c0-1.52,1.64-2.75,3.66-2.75h29.26v-11H253.66c-2,0-3.66-1.23-3.66-2.74v-5.49c0-1.52,1.64-2.74,3.66-2.74h29.26v-11H253.66c-2,0-3.66-1.23-3.66-2.74v-5.49c0-1.52,1.64-2.74,3.66-2.74h29.26a32.92,32.92,0,1,0-65.84,0v54.87A32.92,32.92,0,0,0,250,384.54Z"/></svg>