<svg id="Layer_1" data-name="Layer 1" xmlns="http://www.w3.org/2000/svg" viewBox="0 0 250 250"><defs><style>.cls-1{fill:#fcefc0;}.cls-2{fill:#fff;}.cls-3{fill:#ed9b20;}.cls-3,.cls-4{stroke:#000;stroke-miterlimit:10;}.cls-4{fill:#fad882;}</style></defs><title>placeholder</title><rect class="cls-1" x="2.5" y="2.5" width="245" height="245"/><path class="cls-2" d="M245,5V245H5V5H245m5-5H0V250H250Z"/><path class="cls-3" d="M125,110.74A40.23,40.23,0,1,0,84.78,70.5,40.23,40.23,0,0,0,125,110.74Zm35.75,8.93H145.36a48.6,48.6,0,0,1-40.72,0H89.25A35.76,35.76,0,0,0,53.5,155.42h0v4.47a13.4,13.4,0,0,0,13.4,13.4H183.1a13.4,13.4,0,0,0,13.4-13.4v-4.47a35.76,35.76,0,0,0-35.75-35.75Z"/><path class="cls-4" d="M152.43,164.84h-2.74a2.74,2.74,0,0,0-2.74,2.73h0v8.23a22,22,0,0,1-22.06,21.94c-.69,0-1.39,0-2.09-.1-11.4-1.11-19.75-11.37-19.75-22.82v-7.25a2.75,2.75,0,0,0-2.74-2.75H97.56a2.75,2.75,0,0,0-2.74,2.75v6.88c0,15.37,11,29.07,26.06,31.16v5.88h-9.6a2.74,2.74,0,0,0-2.74,2.74h0V217a2.74,2.74,0,0,0,2.74,2.74h27.44a2.74,2.74,0,0,0,2.74-2.74h0v-2.75a2.74,2.74,0,0,0-2.73-2.74h-9.61v-5.82a30.2,30.2,0,0,0,26.06-29.87v-8.23a2.74,2.74,0,0,0-2.75-2.74ZM125,192.27a16.46,16.46,0,0,0,16.46-16.46H126.83c-1,0-1.83-.62-1.83-1.38v-2.74c0-.76.82-1.37,1.83-1.37h14.63v-5.5H126.83c-1,0-1.83-.62-1.83-1.37v-2.74c0-.76.82-1.37,1.83-1.37h14.63v-5.5H126.83c-1,0-1.83-.62-1.83-1.37v-2.75c0-.76.82-1.37,1.83-1.37h14.63a16.46,16.46,0,0,0-32.92,0h0v27.44A16.45,16.45,0,0,0,125,192.27Z"/></svg>