<svg id="Layer_2" data-name="Layer 2" xmlns="http://www.w3.org/2000/svg" viewBox="0 0 354 105"><defs><style>.cls-1,.cls-2,.cls-3{fill:none;stroke:#f05c5d;}.cls-1,.cls-2,.cls-4{stroke-miterlimit:10;}.cls-2,.cls-3{stroke-linecap:round;}.cls-3{stroke-linejoin:round;}.cls-4{font-size:36px;stroke:#000;font-family:Roboto-Bold, Roboto;font-weight:700;}.cls-5{letter-spacing:-0.1em;}.cls-6{letter-spacing:0.01em;}.cls-7{letter-spacing:0.01em;}</style></defs><title>Artboard 1</title><g id="Logo"><polyline class="cls-1" points="20.5 71.5 28 55 52.5 89.5 63.5 73.5 84.5 71.5"/><polygon class="cls-1" points="20.09 33.74 20.09 71.21 52.55 89.95 85 71.21 85 33.74 52.55 15 20.09 33.74"/><path class="cls-2" d="M20.5,33.5,28,55,52.62,15.61a.49.49,0,0,1,.81,0L74,44,85,34"/><polyline class="cls-3" points="84.5 71.5 74 44 28 55 63.48 73.53 74 44"/></g><text class="cls-4" transform="translate(98.03 63.83) scale(1.04 1)">MU<tspan class="cls-5" x="55.23" y="0">L</tspan><tspan x="71.12" y="0">TI </tspan><tspan class="cls-6" x="112.85" y="0">M</tspan><tspan x="144.7" y="0">AN</tspan><tspan class="cls-7" x="194.34" y="0">I</tspan><tspan x="205.15" y="0">A</tspan></text></svg>