<svg id="Layer_1" data-name="Layer 1" xmlns="http://www.w3.org/2000/svg" viewBox="0 0 65.91 76.1"><defs><style>.cls-1,.cls-2,.cls-3{fill:none;stroke:#f05c5d;}.cls-1,.cls-2{stroke-miterlimit:10;}.cls-2,.cls-3{stroke-linecap:round;}.cls-3{stroke-linejoin:round;}</style></defs><title>multilogoicon</title><g id="Logo"><polyline class="cls-1" points="0.91 57.08 8.41 40.58 32.91 75.08 43.91 59.08 64.91 57.08"/><polygon class="cls-1" points="0.5 19.32 0.5 56.79 32.96 75.53 65.41 56.79 65.41 19.32 32.96 0.58 0.5 19.32"/><path class="cls-2" d="M18,31l7.5,21.5L50.07,13.14a.49.49,0,0,1,.69-.13.4.4,0,0,1,.13.13L71.45,41.53l11-10" transform="translate(-17.05 -11.95)"/><polyline class="cls-3" points="64.91 57.08 54.41 29.58 8.41 40.58 43.89 59.11 54.41 29.58"/></g></svg>